<svg width="512" height="512" viewBox="0 0 512 512">
  <defs>
    <linearGradient id="u0" x1="0" y1="0" x2="0" y2="1"><stop offset="0" stop-color="#2B2D31"/><stop offset="1" stop-color="#0E0F11"/></linearGradient>
    <radialGradient id="u1" cx="0.5" cy="0" r="0.85"><stop offset="0" stop-color="#fff" stop-opacity="0.13"/><stop offset="1" stop-color="#fff" stop-opacity="0"/></radialGradient>
    <linearGradient id="u2" x1="0" y1="0" x2="0" y2="1"><stop offset="0" stop-color="#FFFFFF"/><stop offset="1" stop-color="#C4C9D0"/></linearGradient>
    <linearGradient id="u3" x1="0" y1="0" x2="0" y2="1"><stop offset="0" stop-color="#fff" stop-opacity="0.22"/><stop offset="0.5" stop-color="#fff" stop-opacity="0.04"/><stop offset="1" stop-color="#fff" stop-opacity="0.10"/></linearGradient>
  </defs>
  <rect width="512" height="512" rx="115" fill="url(#u0)"/>
  <rect width="512" height="512" rx="115" fill="url(#u1)"/>
  <rect x="2" y="2" width="508" height="508" rx="113" fill="none" stroke="url(#u3)" stroke-width="4"/>
  <g transform="translate(256 262) scale(0.6) translate(-256 -256)" opacity="0.18" filter="blur(0)"><g transform="translate(0 14)"><defs><mask id="u4" maskUnits="userSpaceOnUse" x="0" y="0" width="512" height="512"><rect width="512" height="512" fill="black"/><circle cx="256" cy="256" r="208" fill="white"/><polyline points="0,184 328,184 184,328 512,328" fill="none" stroke="black" stroke-width="31" stroke-linejoin="miter" stroke-miterlimit="2.4"/></mask></defs><rect width="512" height="512" fill="#000" mask="url(#u4)"/></g></g>
  <g transform="translate(256 256) scale(0.6) translate(-256 -256)"><defs><mask id="u5" maskUnits="userSpaceOnUse" x="0" y="0" width="512" height="512"><rect width="512" height="512" fill="black"/><circle cx="256" cy="256" r="208" fill="white"/><polyline points="0,184 328,184 184,328 512,328" fill="none" stroke="black" stroke-width="31" stroke-linejoin="miter" stroke-miterlimit="2.4"/></mask></defs><rect width="512" height="512" fill="url(#u2)" mask="url(#u5)"/></g>
</svg>